<mxfile host="65bd71144e">
    <diagram id="Jr2po6oYOdZxztfIEDCP" name="Page-1">
        <mxGraphModel dx="1822" dy="617" grid="1" gridSize="10" guides="1" tooltips="1" connect="1" arrows="1" fold="1" page="1" pageScale="1" pageWidth="850" pageHeight="1100" math="0" shadow="0">
            <root>
                <mxCell id="0"/>
                <mxCell id="1" parent="0"/>
                <mxCell id="23" value="&lt;div style=&quot;color: rgb(218, 218, 218); background-color: rgb(30, 30, 30); font-family: &amp;quot;Droid Sans Mono&amp;quot;, &amp;quot;monospace&amp;quot;, monospace; font-weight: normal; font-size: 14px; line-height: 19px;&quot;&gt;LeggedRobotInterface&lt;/div&gt;" style="swimlane;whiteSpace=wrap;html=1;" vertex="1" parent="1">
                    <mxGeometry x="-630" y="150" width="1170" height="330" as="geometry"/>
                </mxCell>
                <mxCell id="24" value="&lt;div style=&quot;color: rgb(218, 218, 218); background-color: rgb(30, 30, 30); font-family: &amp;quot;Droid Sans Mono&amp;quot;, &amp;quot;monospace&amp;quot;, monospace; font-size: 14px; line-height: 19px;&quot;&gt;&lt;span style=&quot;color: #57a64a;&quot;&gt;PinocchioInterface&lt;/span&gt;&lt;/div&gt;" style="text;html=1;align=center;verticalAlign=middle;resizable=0;points=[];autosize=1;strokeColor=none;fillColor=none;" vertex="1" parent="23">
                    <mxGeometry y="45" width="180" height="30" as="geometry"/>
                </mxCell>
                <mxCell id="26" value="&lt;div style=&quot;color: rgb(218, 218, 218); background-color: rgb(30, 30, 30); font-family: &amp;quot;Droid Sans Mono&amp;quot;, &amp;quot;monospace&amp;quot;, monospace; font-size: 14px; line-height: 19px;&quot;&gt;&lt;span style=&quot;color: #57a64a;&quot;&gt;CentroidalModelInfo&lt;/span&gt;&lt;/div&gt;" style="text;html=1;align=center;verticalAlign=middle;resizable=0;points=[];autosize=1;strokeColor=none;fillColor=none;" vertex="1" parent="23">
                    <mxGeometry y="75" width="180" height="30" as="geometry"/>
                </mxCell>
                <mxCell id="27" value="&lt;div style=&quot;color: rgb(218, 218, 218); background-color: rgb(30, 30, 30); font-family: &amp;quot;Droid Sans Mono&amp;quot;, &amp;quot;monospace&amp;quot;, monospace; font-size: 14px; line-height: 19px;&quot;&gt;&lt;span style=&quot;color: #57a64a;&quot;&gt;Swing trajectory planner&lt;/span&gt;&lt;/div&gt;" style="text;html=1;align=center;verticalAlign=middle;resizable=0;points=[];autosize=1;strokeColor=none;fillColor=none;" vertex="1" parent="23">
                    <mxGeometry y="105" width="230" height="30" as="geometry"/>
                </mxCell>
                <mxCell id="28" value="&lt;div style=&quot;color: rgb(218, 218, 218); background-color: rgb(30, 30, 30); font-family: &amp;quot;Droid Sans Mono&amp;quot;, &amp;quot;monospace&amp;quot;, monospace; font-size: 14px; line-height: 19px;&quot;&gt;&lt;span style=&quot;color: #57a64a;&quot;&gt;arm EE planning&lt;/span&gt;&lt;/div&gt;" style="text;html=1;align=center;verticalAlign=middle;resizable=0;points=[];autosize=1;strokeColor=none;fillColor=none;" vertex="1" parent="23">
                    <mxGeometry y="135" width="150" height="30" as="geometry"/>
                </mxCell>
                <mxCell id="29" value="&lt;div style=&quot;color: rgb(218, 218, 218); background-color: rgb(30, 30, 30); font-family: &amp;quot;Droid Sans Mono&amp;quot;, &amp;quot;monospace&amp;quot;, monospace; font-size: 14px; line-height: 19px;&quot;&gt;&lt;span style=&quot;color: #57a64a;&quot;&gt;Sensing from estimated ee wrenches or joint states passed to mpc&lt;/span&gt;&lt;/div&gt;" style="text;html=1;align=center;verticalAlign=middle;resizable=0;points=[];autosize=1;strokeColor=none;fillColor=none;" vertex="1" parent="23">
                    <mxGeometry y="165" width="560" height="30" as="geometry"/>
                </mxCell>
                <mxCell id="30" value="&lt;div style=&quot;color: rgb(218, 218, 218); background-color: rgb(30, 30, 30); font-family: &amp;quot;Droid Sans Mono&amp;quot;, &amp;quot;monospace&amp;quot;, monospace; font-size: 14px; line-height: 19px;&quot;&gt;&lt;span style=&quot;color: #57a64a;&quot;&gt;reference manager:&lt;/span&gt;&lt;span style=&quot;color: rgb(78, 201, 176);&quot;&gt;SwitchedModelReferenceManager&lt;/span&gt;&lt;/div&gt;" style="text;html=1;align=center;verticalAlign=middle;resizable=0;points=[];autosize=1;strokeColor=none;fillColor=none;" vertex="1" parent="23">
                    <mxGeometry y="210" width="420" height="30" as="geometry"/>
                </mxCell>
                <mxCell id="32" value="&lt;div style=&quot;color: rgb(218, 218, 218); background-color: rgb(30, 30, 30); font-family: &amp;quot;Droid Sans Mono&amp;quot;, &amp;quot;monospace&amp;quot;, monospace; font-size: 14px; line-height: 19px;&quot;&gt;&lt;span style=&quot;color: #57a64a;&quot;&gt;Dynamics&lt;/span&gt;&lt;/div&gt;" style="text;html=1;align=center;verticalAlign=middle;resizable=0;points=[];autosize=1;strokeColor=none;fillColor=none;" vertex="1" parent="23">
                    <mxGeometry x="600" y="45" width="90" height="30" as="geometry"/>
                </mxCell>
                <mxCell id="34" value="&lt;div style=&quot;color: rgb(218, 218, 218); background-color: rgb(30, 30, 30); font-family: &amp;quot;Droid Sans Mono&amp;quot;, &amp;quot;monospace&amp;quot;, monospace; font-size: 14px; line-height: 19px;&quot;&gt;&lt;span style=&quot;color: #57a64a;&quot;&gt;Rollout&lt;/span&gt;&lt;/div&gt;" style="text;html=1;align=center;verticalAlign=middle;resizable=0;points=[];autosize=1;strokeColor=none;fillColor=none;" vertex="1" parent="23">
                    <mxGeometry x="605" y="85" width="80" height="30" as="geometry"/>
                </mxCell>
                <mxCell id="31" value="&lt;div style=&quot;color: rgb(218, 218, 218); background-color: rgb(30, 30, 30); font-family: &amp;quot;Droid Sans Mono&amp;quot;, &amp;quot;monospace&amp;quot;, monospace; font-size: 14px; line-height: 19px;&quot;&gt;&lt;span style=&quot;color: #57a64a;&quot;&gt;Optimal control problem&lt;/span&gt;&lt;/div&gt;" style="text;html=1;align=center;verticalAlign=middle;resizable=0;points=[];autosize=1;strokeColor=none;fillColor=none;" vertex="1" parent="1">
                    <mxGeometry x="80" y="385" width="220" height="30" as="geometry"/>
                </mxCell>
                <mxCell id="35" value="&lt;div style=&quot;color: rgb(218, 218, 218); background-color: rgb(30, 30, 30); font-family: &amp;quot;Droid Sans Mono&amp;quot;, &amp;quot;monospace&amp;quot;, monospace; font-weight: normal; font-size: 14px; line-height: 19px;&quot;&gt;&lt;span style=&quot;color: #4ec9b0;&quot;&gt;GaitReceiver&lt;/span&gt;&lt;/div&gt;" style="swimlane;whiteSpace=wrap;html=1;" vertex="1" parent="1">
                    <mxGeometry x="-630" y="550" width="1210" height="610" as="geometry"/>
                </mxCell>
                <mxCell id="36" value="&lt;div style=&quot;color: rgb(218, 218, 218); background-color: rgb(30, 30, 30); font-family: &amp;quot;Droid Sans Mono&amp;quot;, &amp;quot;monospace&amp;quot;, monospace; font-size: 14px; line-height: 19px;&quot;&gt;&lt;span style=&quot;color: #569cd6;&quot;&gt;class&lt;/span&gt; &lt;span style=&quot;color: #4ec9b0;&quot;&gt;GaitReceiver&lt;/span&gt; &lt;span style=&quot;color: #b4b4b4;&quot;&gt;:&lt;/span&gt; &lt;span style=&quot;color: #569cd6;&quot;&gt;public&lt;/span&gt; &lt;span style=&quot;color: #4ec9b0;&quot;&gt;SolverSynchronizedModule&lt;/span&gt;&lt;/div&gt;" style="text;html=1;align=center;verticalAlign=middle;resizable=0;points=[];autosize=1;strokeColor=none;fillColor=none;" vertex="1" parent="35">
                    <mxGeometry x="10" y="50" width="460" height="30" as="geometry"/>
                </mxCell>
                <mxCell id="37" value="&lt;div style=&quot;color: rgb(218, 218, 218); background-color: rgb(30, 30, 30); font-family: &amp;quot;Droid Sans Mono&amp;quot;, &amp;quot;monospace&amp;quot;, monospace; font-size: 14px; line-height: 19px;&quot;&gt;&lt;div&gt;&lt;span style=&quot;color: #569cd6;&quot;&gt;void&lt;/span&gt; &lt;span style=&quot;color: #dcdcaa;&quot;&gt;preSolverRun&lt;/span&gt;&lt;span style=&quot;color: #b4b4b4;&quot;&gt;(&lt;/span&gt;&lt;span style=&quot;color: #4ec9b0;&quot;&gt;scalar_t&lt;/span&gt; &lt;span style=&quot;color: #9a9a9a;&quot;&gt;initTime&lt;/span&gt;&lt;span style=&quot;color: #b4b4b4;&quot;&gt;,&lt;/span&gt; &lt;span style=&quot;color: #4ec9b0;&quot;&gt;scalar_t&lt;/span&gt; &lt;span style=&quot;color: #9a9a9a;&quot;&gt;finalTime&lt;/span&gt;&lt;span style=&quot;color: #b4b4b4;&quot;&gt;,&lt;/span&gt; &lt;span style=&quot;color: #569cd6;&quot;&gt;const&lt;/span&gt; &lt;span style=&quot;color: #4ec9b0;&quot;&gt;vector_t&lt;/span&gt;&lt;span style=&quot;color: #b4b4b4;&quot;&gt;&amp;amp;&lt;/span&gt; &lt;span style=&quot;color: #9a9a9a;&quot;&gt;currentState&lt;/span&gt;&lt;span style=&quot;color: #b4b4b4;&quot;&gt;,&lt;/span&gt;&lt;/div&gt;&lt;div&gt;                    &lt;span style=&quot;color: #569cd6;&quot;&gt;const&lt;/span&gt; &lt;span style=&quot;color: #4ec9b0;&quot;&gt;ReferenceManagerInterface&lt;/span&gt;&lt;span style=&quot;color: #b4b4b4;&quot;&gt;&amp;amp;&lt;/span&gt; &lt;span style=&quot;color: #9a9a9a;&quot;&gt;referenceManager&lt;/span&gt;&lt;span style=&quot;color: #b4b4b4;&quot;&gt;)&lt;/span&gt; &lt;span style=&quot;color: #569cd6;&quot;&gt;override&lt;/span&gt;&lt;span style=&quot;color: #b4b4b4;&quot;&gt;;&lt;/span&gt;&lt;/div&gt;&lt;/div&gt;" style="text;html=1;align=center;verticalAlign=middle;resizable=0;points=[];autosize=1;strokeColor=none;fillColor=none;" vertex="1" parent="35">
                    <mxGeometry x="30" y="160" width="750" height="50" as="geometry"/>
                </mxCell>
                <mxCell id="38" value="&lt;div style=&quot;color: rgb(218, 218, 218); background-color: rgb(30, 30, 30); font-family: &amp;quot;Droid Sans Mono&amp;quot;, &amp;quot;monospace&amp;quot;, monospace; font-size: 14px; line-height: 19px;&quot;&gt;&lt;span style=&quot;color: #569cd6;&quot;&gt;void&lt;/span&gt; &lt;span style=&quot;color: #dcdcaa;&quot;&gt;postSolverRun&lt;/span&gt;&lt;span style=&quot;color: #b4b4b4;&quot;&gt;(&lt;/span&gt;&lt;span style=&quot;color: #569cd6;&quot;&gt;const&lt;/span&gt; &lt;span style=&quot;color: #4ec9b0;&quot;&gt;PrimalSolution&lt;/span&gt;&lt;span style=&quot;color: #b4b4b4;&quot;&gt;&amp;amp;&lt;/span&gt; &lt;span style=&quot;color: #9a9a9a;&quot;&gt;primalSolution&lt;/span&gt;&lt;span style=&quot;color: #b4b4b4;&quot;&gt;)&lt;/span&gt; &lt;span style=&quot;color: #569cd6;&quot;&gt;override&lt;/span&gt;&lt;span style=&quot;color: #b4b4b4;&quot;&gt;{};&lt;/span&gt;&lt;/div&gt;" style="text;html=1;align=center;verticalAlign=middle;resizable=0;points=[];autosize=1;strokeColor=none;fillColor=none;" vertex="1" parent="35">
                    <mxGeometry x="30" y="220" width="600" height="30" as="geometry"/>
                </mxCell>
                <mxCell id="39" value="&lt;div style=&quot;color: rgb(218, 218, 218); background-color: rgb(30, 30, 30); font-family: &amp;quot;Droid Sans Mono&amp;quot;, &amp;quot;monospace&amp;quot;, monospace; font-size: 14px; line-height: 19px;&quot;&gt;  &lt;span style=&quot;color: #dcdcaa;&quot;&gt;GaitReceiver&lt;/span&gt;&lt;span style=&quot;color: #b4b4b4;&quot;&gt;(&lt;/span&gt;&lt;span style=&quot;color: #c8c8c8;&quot;&gt;ros&lt;/span&gt;&lt;span style=&quot;color: #b4b4b4;&quot;&gt;::&lt;/span&gt;&lt;span style=&quot;color: #4ec9b0;&quot;&gt;NodeHandle&lt;/span&gt; &lt;span style=&quot;color: #9a9a9a;&quot;&gt;nodeHandle&lt;/span&gt;&lt;span style=&quot;color: #b4b4b4;&quot;&gt;,&lt;/span&gt; &lt;span style=&quot;color: #c8c8c8;&quot;&gt;std&lt;/span&gt;&lt;span style=&quot;color: #b4b4b4;&quot;&gt;::&lt;/span&gt;&lt;span style=&quot;color: #4ec9b0;&quot;&gt;shared_ptr&lt;/span&gt;&lt;span style=&quot;color: #b4b4b4;&quot;&gt;&amp;lt;&lt;/span&gt;&lt;span style=&quot;color: #4ec9b0;&quot;&gt;GaitSchedule&lt;/span&gt;&lt;span style=&quot;color: #b4b4b4;&quot;&gt;&amp;gt;&lt;/span&gt; &lt;span style=&quot;color: #9a9a9a;&quot;&gt;gaitSchedulePtr&lt;/span&gt;&lt;span style=&quot;color: #b4b4b4;&quot;&gt;,&lt;/span&gt; &lt;span style=&quot;color: #569cd6;&quot;&gt;const&lt;/span&gt; &lt;span style=&quot;color: #c8c8c8;&quot;&gt;std&lt;/span&gt;&lt;span style=&quot;color: #b4b4b4;&quot;&gt;::&lt;/span&gt;&lt;span style=&quot;color: #4ec9b0;&quot;&gt;string&lt;/span&gt;&lt;span style=&quot;color: #b4b4b4;&quot;&gt;&amp;amp;&lt;/span&gt; &lt;span style=&quot;color: #9a9a9a;&quot;&gt;robotName&lt;/span&gt;&lt;span style=&quot;color: #b4b4b4;&quot;&gt;);&lt;/span&gt;&lt;/div&gt;" style="text;html=1;align=center;verticalAlign=middle;resizable=0;points=[];autosize=1;strokeColor=none;fillColor=none;" vertex="1" parent="35">
                    <mxGeometry x="30" y="90" width="1020" height="30" as="geometry"/>
                </mxCell>
                <mxCell id="40" value="&lt;div style=&quot;color: rgb(218, 218, 218); background-color: rgb(30, 30, 30); font-family: &amp;quot;Droid Sans Mono&amp;quot;, &amp;quot;monospace&amp;quot;, monospace; font-weight: normal; font-size: 14px; line-height: 19px;&quot;&gt;&lt;div&gt;&lt;span style=&quot;color: #569cd6;&quot;&gt;void&lt;/span&gt;&lt;span style=&quot;color: #dadada;&quot;&gt; &lt;/span&gt;&lt;span style=&quot;color: #dcdcaa;&quot;&gt;mpcModeSequenceCallback&lt;/span&gt;&lt;span style=&quot;color: #b4b4b4;&quot;&gt;(&lt;/span&gt;&lt;span style=&quot;color: #569cd6;&quot;&gt;const&lt;/span&gt;&lt;span style=&quot;color: #dadada;&quot;&gt; &lt;/span&gt;&lt;span style=&quot;color: #c8c8c8;&quot;&gt;ocs2_msgs&lt;/span&gt;&lt;span style=&quot;color: #b4b4b4;&quot;&gt;::&lt;/span&gt;&lt;span style=&quot;color: #4ec9b0;&quot;&gt;mode_schedule&lt;/span&gt;&lt;span style=&quot;color: #b4b4b4;&quot;&gt;::&lt;/span&gt;&lt;span style=&quot;color: #4ec9b0;&quot;&gt;ConstPtr&lt;/span&gt;&lt;span style=&quot;color: #b4b4b4;&quot;&gt;&amp;amp;&lt;/span&gt;&lt;span style=&quot;color: #dadada;&quot;&gt; &lt;/span&gt;&lt;span style=&quot;color: #9a9a9a;&quot;&gt;msg&lt;/span&gt;&lt;span style=&quot;color: #b4b4b4;&quot;&gt;);&lt;/span&gt;&lt;/div&gt;&lt;/div&gt;" style="text;html=1;align=center;verticalAlign=middle;resizable=0;points=[];autosize=1;strokeColor=none;fillColor=none;" vertex="1" parent="35">
                    <mxGeometry x="40" y="270" width="660" height="30" as="geometry"/>
                </mxCell>
                <mxCell id="43" value="" style="edgeStyle=none;html=1;" edge="1" parent="35" source="41" target="42">
                    <mxGeometry relative="1" as="geometry"/>
                </mxCell>
                <mxCell id="41" value="subscribe: robotName_mpc_mode_schedule" style="text;html=1;align=center;verticalAlign=middle;resizable=0;points=[];autosize=1;strokeColor=none;fillColor=none;" vertex="1" parent="35">
                    <mxGeometry x="40" y="330" width="260" height="30" as="geometry"/>
                </mxCell>
                <mxCell id="42" value="update: gaitSchedulePtr&lt;br&gt;" style="text;html=1;align=center;verticalAlign=middle;resizable=0;points=[];autosize=1;strokeColor=none;fillColor=none;" vertex="1" parent="35">
                    <mxGeometry x="95" y="440" width="150" height="30" as="geometry"/>
                </mxCell>
                <mxCell id="44" value="&lt;div style=&quot;color: rgb(218, 218, 218); background-color: rgb(30, 30, 30); font-family: &amp;quot;Droid Sans Mono&amp;quot;, &amp;quot;monospace&amp;quot;, monospace; font-weight: normal; font-size: 14px; line-height: 19px;&quot;&gt;&lt;span style=&quot;color: #4ec9b0;&quot;&gt;RosReferenceManager&lt;/span&gt;&lt;/div&gt;" style="swimlane;whiteSpace=wrap;html=1;" vertex="1" parent="1">
                    <mxGeometry x="-630" y="1210" width="1210" height="330" as="geometry"/>
                </mxCell>
                <mxCell id="45" value="&lt;div style=&quot;color: rgb(218, 218, 218); background-color: rgb(30, 30, 30); font-family: &amp;quot;Droid Sans Mono&amp;quot;, &amp;quot;monospace&amp;quot;, monospace; font-size: 14px; line-height: 19px;&quot;&gt;&lt;span style=&quot;color: #569cd6;&quot;&gt;class&lt;/span&gt; &lt;span style=&quot;color: #4ec9b0;&quot;&gt;RosReferenceManager&lt;/span&gt; &lt;span style=&quot;color: #569cd6;&quot;&gt;final&lt;/span&gt; &lt;span style=&quot;color: #b4b4b4;&quot;&gt;:&lt;/span&gt; &lt;span style=&quot;color: #569cd6;&quot;&gt;public&lt;/span&gt; &lt;span style=&quot;color: #4ec9b0;&quot;&gt;ReferenceManagerDecorator&lt;/span&gt;&lt;/div&gt;" style="text;html=1;align=center;verticalAlign=middle;resizable=0;points=[];autosize=1;strokeColor=none;fillColor=none;" vertex="1" parent="44">
                    <mxGeometry x="10" y="60" width="580" height="30" as="geometry"/>
                </mxCell>
                <mxCell id="46" value="&lt;div style=&quot;color: rgb(218, 218, 218); background-color: rgb(30, 30, 30); font-family: &amp;quot;Droid Sans Mono&amp;quot;, &amp;quot;monospace&amp;quot;, monospace; font-size: 14px; line-height: 19px;&quot;&gt;  &lt;span style=&quot;color: #569cd6;&quot;&gt;explicit&lt;/span&gt; &lt;span style=&quot;color: #dcdcaa;&quot;&gt;RosReferenceManager&lt;/span&gt;&lt;span style=&quot;color: #b4b4b4;&quot;&gt;(&lt;/span&gt;&lt;span style=&quot;color: #c8c8c8;&quot;&gt;std&lt;/span&gt;&lt;span style=&quot;color: #b4b4b4;&quot;&gt;::&lt;/span&gt;&lt;span style=&quot;color: #4ec9b0;&quot;&gt;string&lt;/span&gt; &lt;span style=&quot;color: #9a9a9a;&quot;&gt;topicPrefix&lt;/span&gt;&lt;span style=&quot;color: #b4b4b4;&quot;&gt;,&lt;/span&gt; &lt;span style=&quot;color: #c8c8c8;&quot;&gt;std&lt;/span&gt;&lt;span style=&quot;color: #b4b4b4;&quot;&gt;::&lt;/span&gt;&lt;span style=&quot;color: #4ec9b0;&quot;&gt;shared_ptr&lt;/span&gt;&lt;span style=&quot;color: #b4b4b4;&quot;&gt;&amp;lt;&lt;/span&gt;&lt;span style=&quot;color: #4ec9b0;&quot;&gt;ReferenceManagerInterface&lt;/span&gt;&lt;span style=&quot;color: #b4b4b4;&quot;&gt;&amp;gt;&lt;/span&gt; &lt;span style=&quot;color: #9a9a9a;&quot;&gt;referenceManagerPtr&lt;/span&gt;&lt;span style=&quot;color: #b4b4b4;&quot;&gt;);&lt;/span&gt;&lt;/div&gt;" style="text;html=1;align=center;verticalAlign=middle;resizable=0;points=[];autosize=1;strokeColor=none;fillColor=none;" vertex="1" parent="44">
                    <mxGeometry x="20" y="100" width="1020" height="30" as="geometry"/>
                </mxCell>
                <mxCell id="50" value="" style="edgeStyle=none;html=1;" edge="1" parent="44" source="47" target="49">
                    <mxGeometry relative="1" as="geometry"/>
                </mxCell>
                <mxCell id="47" value="subscribe: robotName_mode_schedule, robotName_mpc_target" style="text;html=1;align=center;verticalAlign=middle;resizable=0;points=[];autosize=1;strokeColor=none;fillColor=none;" vertex="1" parent="44">
                    <mxGeometry x="40" y="180" width="360" height="30" as="geometry"/>
                </mxCell>
                <mxCell id="49" value="update: referenceManagerPtr" style="text;html=1;align=center;verticalAlign=middle;resizable=0;points=[];autosize=1;strokeColor=none;fillColor=none;" vertex="1" parent="44">
                    <mxGeometry x="130" y="290" width="180" height="30" as="geometry"/>
                </mxCell>
                <mxCell id="60" value="" style="edgeStyle=none;html=1;entryX=0.442;entryY=-0.043;entryDx=0;entryDy=0;entryPerimeter=0;" edge="1" parent="1" source="52" target="59">
                    <mxGeometry relative="1" as="geometry"/>
                </mxCell>
                <mxCell id="52" value="&lt;div style=&quot;color: rgb(218, 218, 218); background-color: rgb(30, 30, 30); font-family: &amp;quot;Droid Sans Mono&amp;quot;, &amp;quot;monospace&amp;quot;, monospace; font-weight: normal; font-size: 14px; line-height: 19px;&quot;&gt;GaussNewtonDDP_MPC&lt;/div&gt;" style="swimlane;whiteSpace=wrap;html=1;" vertex="1" parent="1">
                    <mxGeometry x="-630" y="1610" width="1210" height="420" as="geometry"/>
                </mxCell>
                <mxCell id="54" value="&lt;div style=&quot;color: rgb(218, 218, 218); background-color: rgb(30, 30, 30); font-family: &amp;quot;Droid Sans Mono&amp;quot;, &amp;quot;monospace&amp;quot;, monospace; font-size: 14px; line-height: 19px;&quot;&gt;&lt;span style=&quot;color: #569cd6;&quot;&gt;class&lt;/span&gt; &lt;span style=&quot;color: #4ec9b0;&quot;&gt;GaussNewtonDDP_MPC&lt;/span&gt; &lt;span style=&quot;color: #569cd6;&quot;&gt;final&lt;/span&gt; &lt;span style=&quot;color: #b4b4b4;&quot;&gt;:&lt;/span&gt; &lt;span style=&quot;color: #569cd6;&quot;&gt;public&lt;/span&gt; &lt;span style=&quot;color: #4ec9b0;&quot;&gt;MPC_BASE&lt;/span&gt;&lt;/div&gt;" style="text;html=1;align=center;verticalAlign=middle;resizable=0;points=[];autosize=1;strokeColor=none;fillColor=none;" vertex="1" parent="52">
                    <mxGeometry x="20" y="55" width="430" height="30" as="geometry"/>
                </mxCell>
                <mxCell id="55" value="&lt;div style=&quot;color: rgb(218, 218, 218); background-color: rgb(30, 30, 30); font-family: &amp;quot;Droid Sans Mono&amp;quot;, &amp;quot;monospace&amp;quot;, monospace; font-size: 14px; line-height: 19px;&quot;&gt;&lt;span style=&quot;color: #4ec9b0;&quot;&gt;GaussNewtonDDP&lt;/span&gt;&lt;span style=&quot;color: #b4b4b4;&quot;&gt;*&lt;/span&gt; &lt;span style=&quot;color: #dcdcaa;&quot;&gt;getSolverPtr&lt;/span&gt;&lt;span style=&quot;color: #b4b4b4;&quot;&gt;()&lt;/span&gt; &lt;span style=&quot;color: #569cd6;&quot;&gt;override&lt;/span&gt; &lt;span style=&quot;color: #b4b4b4;&quot;&gt;{&lt;/span&gt; &lt;span style=&quot;color: #d8a0df;&quot;&gt;return&lt;/span&gt; &lt;span style=&quot;color: #9cdcfe;&quot;&gt;ddpPtr_&lt;/span&gt;&lt;span style=&quot;color: #b4b4b4;&quot;&gt;.&lt;/span&gt;&lt;span style=&quot;color: #dcdcaa;&quot;&gt;get&lt;/span&gt;&lt;span style=&quot;color: #b4b4b4;&quot;&gt;();&lt;/span&gt; &lt;span style=&quot;color: #b4b4b4;&quot;&gt;}&lt;/span&gt;&lt;/div&gt;" style="text;html=1;align=center;verticalAlign=middle;resizable=0;points=[];autosize=1;strokeColor=none;fillColor=none;" vertex="1" parent="52">
                    <mxGeometry x="70" y="230" width="570" height="30" as="geometry"/>
                </mxCell>
                <mxCell id="56" value="&lt;div style=&quot;color: rgb(218, 218, 218); background-color: rgb(30, 30, 30); font-family: &amp;quot;Droid Sans Mono&amp;quot;, &amp;quot;monospace&amp;quot;, monospace; font-size: 14px; line-height: 19px;&quot;&gt;&lt;div&gt;  &lt;span style=&quot;color: #569cd6;&quot;&gt;void&lt;/span&gt; &lt;span style=&quot;color: #dcdcaa;&quot;&gt;calculateController&lt;/span&gt;&lt;span style=&quot;color: #b4b4b4;&quot;&gt;(&lt;/span&gt;&lt;span style=&quot;color: #4ec9b0;&quot;&gt;scalar_t&lt;/span&gt; &lt;span style=&quot;color: #9a9a9a;&quot;&gt;initTime&lt;/span&gt;&lt;span style=&quot;color: #b4b4b4;&quot;&gt;,&lt;/span&gt; &lt;span style=&quot;color: #569cd6;&quot;&gt;const&lt;/span&gt; &lt;span style=&quot;color: #4ec9b0;&quot;&gt;vector_t&lt;/span&gt;&lt;span style=&quot;color: #b4b4b4;&quot;&gt;&amp;amp;&lt;/span&gt; &lt;span style=&quot;color: #9a9a9a;&quot;&gt;initState&lt;/span&gt;&lt;span style=&quot;color: #b4b4b4;&quot;&gt;,&lt;/span&gt; &lt;span style=&quot;color: #4ec9b0;&quot;&gt;scalar_t&lt;/span&gt; &lt;span style=&quot;color: #9a9a9a;&quot;&gt;finalTime&lt;/span&gt;&lt;span style=&quot;color: #b4b4b4;&quot;&gt;)&lt;/span&gt; &lt;span style=&quot;color: #569cd6;&quot;&gt;override&lt;/span&gt; &lt;span style=&quot;color: #b4b4b4;&quot;&gt;{&lt;/span&gt;&lt;/div&gt;&lt;div&gt;    &lt;span style=&quot;color: #d8a0df;&quot;&gt;if&lt;/span&gt; &lt;span style=&quot;color: #b4b4b4;&quot;&gt;(&lt;/span&gt;&lt;span style=&quot;color: #dcdcaa;&quot;&gt;settings&lt;/span&gt;&lt;span style=&quot;color: #b4b4b4;&quot;&gt;().&lt;/span&gt;coldStart_&lt;span style=&quot;color: #b4b4b4;&quot;&gt;)&lt;/span&gt; &lt;span style=&quot;color: #b4b4b4;&quot;&gt;{&lt;/span&gt;&lt;/div&gt;&lt;div&gt;      &lt;span style=&quot;color: #9cdcfe;&quot;&gt;ddpPtr_&lt;/span&gt;&lt;span style=&quot;color: #b4b4b4;&quot;&gt;-&amp;gt;&lt;/span&gt;&lt;span style=&quot;color: #dcdcaa;&quot;&gt;reset&lt;/span&gt;&lt;span style=&quot;color: #b4b4b4;&quot;&gt;();&lt;/span&gt;&lt;/div&gt;&lt;div&gt;    &lt;span style=&quot;color: #b4b4b4;&quot;&gt;}&lt;/span&gt;&lt;/div&gt;&lt;div&gt;    &lt;span style=&quot;color: #9cdcfe;&quot;&gt;ddpPtr_&lt;/span&gt;&lt;span style=&quot;color: #b4b4b4;&quot;&gt;-&amp;gt;&lt;/span&gt;&lt;span style=&quot;color: #dcdcaa;&quot;&gt;run&lt;/span&gt;&lt;span style=&quot;color: #b4b4b4;&quot;&gt;(&lt;/span&gt;initTime&lt;span style=&quot;color: #b4b4b4;&quot;&gt;,&lt;/span&gt; initState&lt;span style=&quot;color: #b4b4b4;&quot;&gt;,&lt;/span&gt; finalTime&lt;span style=&quot;color: #b4b4b4;&quot;&gt;);&lt;/span&gt;&lt;/div&gt;&lt;div&gt;  &lt;span style=&quot;color: #b4b4b4;&quot;&gt;}&lt;/span&gt;&lt;/div&gt;&lt;/div&gt;" style="text;html=1;align=center;verticalAlign=middle;resizable=0;points=[];autosize=1;strokeColor=none;fillColor=none;" vertex="1" parent="52">
                    <mxGeometry x="60" y="260" width="870" height="130" as="geometry"/>
                </mxCell>
                <mxCell id="57" value="&lt;div style=&quot;color: rgb(218, 218, 218); background-color: rgb(30, 30, 30); font-family: &amp;quot;Droid Sans Mono&amp;quot;, &amp;quot;monospace&amp;quot;, monospace; font-size: 14px; line-height: 19px;&quot;&gt;&lt;div&gt;  &lt;span style=&quot;color: #dcdcaa;&quot;&gt;GaussNewtonDDP_MPC&lt;/span&gt;&lt;span style=&quot;color: #b4b4b4;&quot;&gt;(&lt;/span&gt;&lt;span style=&quot;color: #c8c8c8;&quot;&gt;mpc&lt;/span&gt;&lt;span style=&quot;color: #b4b4b4;&quot;&gt;::&lt;/span&gt;&lt;span style=&quot;color: #4ec9b0;&quot;&gt;Settings&lt;/span&gt; &lt;span style=&quot;color: #9a9a9a;&quot;&gt;mpcSettings&lt;/span&gt;&lt;span style=&quot;color: #b4b4b4;&quot;&gt;,&lt;/span&gt; &lt;span style=&quot;color: #c8c8c8;&quot;&gt;ddp&lt;/span&gt;&lt;span style=&quot;color: #b4b4b4;&quot;&gt;::&lt;/span&gt;&lt;span style=&quot;color: #4ec9b0;&quot;&gt;Settings&lt;/span&gt; &lt;span style=&quot;color: #9a9a9a;&quot;&gt;ddpSettings&lt;/span&gt;&lt;span style=&quot;color: #b4b4b4;&quot;&gt;,&lt;/span&gt; &lt;span style=&quot;color: #569cd6;&quot;&gt;const&lt;/span&gt; &lt;span style=&quot;color: #4ec9b0;&quot;&gt;RolloutBase&lt;/span&gt;&lt;span style=&quot;color: #b4b4b4;&quot;&gt;&amp;amp;&lt;/span&gt; &lt;span style=&quot;color: #9a9a9a;&quot;&gt;rollout&lt;/span&gt;&lt;span style=&quot;color: #b4b4b4;&quot;&gt;,&lt;/span&gt;&lt;/div&gt;&lt;div&gt;                     &lt;span style=&quot;color: #569cd6;&quot;&gt;const&lt;/span&gt; &lt;span style=&quot;color: #4ec9b0;&quot;&gt;OptimalControlProblem&lt;/span&gt;&lt;span style=&quot;color: #b4b4b4;&quot;&gt;&amp;amp;&lt;/span&gt; &lt;span style=&quot;color: #9a9a9a;&quot;&gt;optimalControlProblem&lt;/span&gt;&lt;span style=&quot;color: #b4b4b4;&quot;&gt;,&lt;/span&gt; &lt;span style=&quot;color: #569cd6;&quot;&gt;const&lt;/span&gt; &lt;span style=&quot;color: #4ec9b0;&quot;&gt;Initializer&lt;/span&gt;&lt;span style=&quot;color: #b4b4b4;&quot;&gt;&amp;amp;&lt;/span&gt; &lt;span style=&quot;color: #9a9a9a;&quot;&gt;initializer&lt;/span&gt;&lt;span style=&quot;color: #b4b4b4;&quot;&gt;)&lt;/span&gt;&lt;/div&gt;&lt;div&gt;      &lt;span style=&quot;color: #b4b4b4;&quot;&gt;:&lt;/span&gt; &lt;span style=&quot;color: #dcdcaa;&quot;&gt;MPC_BASE&lt;/span&gt;&lt;span style=&quot;color: #b4b4b4;&quot;&gt;(&lt;/span&gt;&lt;span style=&quot;color: #c8c8c8;&quot;&gt;std&lt;/span&gt;&lt;span style=&quot;color: #b4b4b4;&quot;&gt;::&lt;/span&gt;&lt;span style=&quot;color: #dcdcaa;&quot;&gt;move&lt;/span&gt;&lt;span style=&quot;color: #b4b4b4;&quot;&gt;(&lt;/span&gt;mpcSettings&lt;span style=&quot;color: #b4b4b4;&quot;&gt;))&lt;/span&gt; &lt;/div&gt;&lt;/div&gt;" style="text;html=1;align=center;verticalAlign=middle;resizable=0;points=[];autosize=1;strokeColor=none;fillColor=none;" vertex="1" parent="52">
                    <mxGeometry x="70" y="100" width="870" height="70" as="geometry"/>
                </mxCell>
                <mxCell id="59" value="&lt;div style=&quot;color: rgb(218, 218, 218); background-color: rgb(30, 30, 30); font-family: &amp;quot;Droid Sans Mono&amp;quot;, &amp;quot;monospace&amp;quot;, monospace; font-weight: normal; font-size: 14px; line-height: 19px;&quot;&gt;&lt;div&gt;  &lt;span style=&quot;color: #9cdcfe;&quot;&gt;mpc&lt;/span&gt;&lt;span style=&quot;color: #b4b4b4;&quot;&gt;.&lt;/span&gt;&lt;span style=&quot;color: #dcdcaa;&quot;&gt;getSolverPtr&lt;/span&gt;&lt;span style=&quot;color: #b4b4b4;&quot;&gt;()-&amp;gt;&lt;/span&gt;&lt;span style=&quot;color: #dcdcaa;&quot;&gt;setReferenceManager&lt;/span&gt;&lt;span style=&quot;color: #b4b4b4;&quot;&gt;(&lt;/span&gt;rosReferenceManagerPtr&lt;span style=&quot;color: #b4b4b4;&quot;&gt;);&lt;/span&gt;&lt;/div&gt;&lt;div&gt;&lt;div style=&quot;line-height: 19px;&quot;&gt;&lt;span style=&quot;color: #9cdcfe;&quot;&gt;mpc&lt;/span&gt;&lt;span style=&quot;color: #b4b4b4;&quot;&gt;.&lt;/span&gt;&lt;span style=&quot;color: #dcdcaa;&quot;&gt;getSolverPtr&lt;/span&gt;&lt;span style=&quot;color: #b4b4b4;&quot;&gt;()-&amp;gt;&lt;/span&gt;&lt;span style=&quot;color: #dcdcaa;&quot;&gt;addSynchronizedModule&lt;/span&gt;&lt;span style=&quot;color: #b4b4b4;&quot;&gt;(&lt;/span&gt;gaitReceiverPtr&lt;span style=&quot;color: #b4b4b4;&quot;&gt;);&lt;/span&gt;&lt;/div&gt;&lt;/div&gt;&lt;div&gt;&lt;/div&gt;&lt;/div&gt;" style="whiteSpace=wrap;html=1;fontStyle=1;startSize=23;" vertex="1" parent="1">
                    <mxGeometry x="-230" y="2170" width="465" height="110" as="geometry"/>
                </mxCell>
                <mxCell id="61" value="&lt;div style=&quot;color: rgb(218, 218, 218); background-color: rgb(30, 30, 30); font-family: &amp;quot;Droid Sans Mono&amp;quot;, &amp;quot;monospace&amp;quot;, monospace; font-weight: normal; font-size: 14px; line-height: 19px;&quot;&gt;MPC_ROS_Interface&lt;/div&gt;" style="swimlane;whiteSpace=wrap;html=1;" vertex="1" parent="1">
                    <mxGeometry x="-620" y="2560" width="1220" height="770" as="geometry"/>
                </mxCell>
                <mxCell id="62" value="&lt;div style=&quot;color: rgb(218, 218, 218); background-color: rgb(30, 30, 30); font-family: &amp;quot;Droid Sans Mono&amp;quot;, &amp;quot;monospace&amp;quot;, monospace; font-size: 14px; line-height: 19px;&quot;&gt;&lt;span style=&quot;color: #569cd6;&quot;&gt;class&lt;/span&gt; &lt;span style=&quot;color: #4ec9b0;&quot;&gt;MPC_ROS_Interface&lt;/span&gt; &lt;/div&gt;" style="text;html=1;align=center;verticalAlign=middle;resizable=0;points=[];autosize=1;strokeColor=none;fillColor=none;" vertex="1" parent="61">
                    <mxGeometry x="40" y="40" width="220" height="30" as="geometry"/>
                </mxCell>
                <mxCell id="63" value="&lt;div style=&quot;color: rgb(218, 218, 218); background-color: rgb(30, 30, 30); font-family: &amp;quot;Droid Sans Mono&amp;quot;, &amp;quot;monospace&amp;quot;, monospace; font-size: 14px; line-height: 19px;&quot;&gt;&lt;div&gt;&lt;span style=&quot;color: #4ec9b0;&quot;&gt;MPC_ROS_Interface&lt;/span&gt;&lt;span style=&quot;color: #b4b4b4;&quot;&gt;::&lt;/span&gt;&lt;span style=&quot;color: #dcdcaa;&quot;&gt;MPC_ROS_Interface&lt;/span&gt;&lt;span style=&quot;color: #b4b4b4;&quot;&gt;(&lt;/span&gt;MPC_BASE&lt;span style=&quot;color: #b4b4b4;&quot;&gt;&amp;amp;&lt;/span&gt; &lt;span style=&quot;color: #9a9a9a;&quot;&gt;mpc&lt;/span&gt;&lt;span style=&quot;color: #b4b4b4;&quot;&gt;,&lt;/span&gt; &lt;span style=&quot;color: #c8c8c8;&quot;&gt;std&lt;/span&gt;&lt;span style=&quot;color: #b4b4b4;&quot;&gt;::&lt;/span&gt;&lt;span style=&quot;color: #4ec9b0;&quot;&gt;string&lt;/span&gt; &lt;span style=&quot;color: #9a9a9a;&quot;&gt;topicPrefix&lt;/span&gt;&lt;span style=&quot;color: #b4b4b4;&quot;&gt;)&lt;/span&gt;&lt;/div&gt;&lt;div&gt;    : mpc_&lt;span style=&quot;color: #b4b4b4;&quot;&gt;(&lt;/span&gt;&lt;span style=&quot;color: #9a9a9a;&quot;&gt;mpc&lt;/span&gt;&lt;span style=&quot;color: #b4b4b4;&quot;&gt;),&lt;/span&gt;&lt;/div&gt;&lt;div&gt;      topicPrefix_&lt;span style=&quot;color: #b4b4b4;&quot;&gt;(&lt;/span&gt;&lt;span style=&quot;color: #c8c8c8;&quot;&gt;std&lt;/span&gt;&lt;span style=&quot;color: #b4b4b4;&quot;&gt;::&lt;/span&gt;&lt;span style=&quot;color: #dcdcaa;&quot;&gt;move&lt;/span&gt;&lt;span style=&quot;color: #b4b4b4;&quot;&gt;(&lt;/span&gt;&lt;span style=&quot;color: #9a9a9a;&quot;&gt;topicPrefix&lt;/span&gt;&lt;span style=&quot;color: #b4b4b4;&quot;&gt;)),&lt;/span&gt;&lt;/div&gt;&lt;div&gt;      bufferPrimalSolutionPtr_&lt;span style=&quot;color: #b4b4b4;&quot;&gt;(&lt;/span&gt;&lt;span style=&quot;color: #569cd6;&quot;&gt;new&lt;/span&gt; &lt;span style=&quot;color: #dcdcaa;&quot;&gt;PrimalSolution&lt;/span&gt;&lt;span style=&quot;color: #b4b4b4;&quot;&gt;()),&lt;/span&gt;&lt;/div&gt;&lt;div&gt;      publisherPrimalSolutionPtr_&lt;span style=&quot;color: #b4b4b4;&quot;&gt;(&lt;/span&gt;&lt;span style=&quot;color: #569cd6;&quot;&gt;new&lt;/span&gt; &lt;span style=&quot;color: #dcdcaa;&quot;&gt;PrimalSolution&lt;/span&gt;&lt;span style=&quot;color: #b4b4b4;&quot;&gt;()),&lt;/span&gt;&lt;/div&gt;&lt;div&gt;      bufferCommandPtr_&lt;span style=&quot;color: #b4b4b4;&quot;&gt;(&lt;/span&gt;&lt;span style=&quot;color: #569cd6;&quot;&gt;new&lt;/span&gt; &lt;span style=&quot;color: #dcdcaa;&quot;&gt;CommandData&lt;/span&gt;&lt;span style=&quot;color: #b4b4b4;&quot;&gt;()),&lt;/span&gt;&lt;/div&gt;&lt;div&gt;      publisherCommandPtr_&lt;span style=&quot;color: #b4b4b4;&quot;&gt;(&lt;/span&gt;&lt;span style=&quot;color: #569cd6;&quot;&gt;new&lt;/span&gt; &lt;span style=&quot;color: #dcdcaa;&quot;&gt;CommandData&lt;/span&gt;&lt;span style=&quot;color: #b4b4b4;&quot;&gt;()),&lt;/span&gt;&lt;/div&gt;&lt;div&gt;      bufferPerformanceIndicesPtr_&lt;span style=&quot;color: #b4b4b4;&quot;&gt;(&lt;/span&gt;&lt;span style=&quot;color: #569cd6;&quot;&gt;new&lt;/span&gt; PerformanceIndex&lt;span style=&quot;color: #b4b4b4;&quot;&gt;),&lt;/span&gt;&lt;/div&gt;&lt;div&gt;      publisherPerformanceIndicesPtr_&lt;span style=&quot;color: #b4b4b4;&quot;&gt;(&lt;/span&gt;&lt;span style=&quot;color: #569cd6;&quot;&gt;new&lt;/span&gt; PerformanceIndex&lt;span style=&quot;color: #b4b4b4;&quot;&gt;)&lt;/span&gt; &lt;span style=&quot;color: #b4b4b4;&quot;&gt;{&lt;/span&gt;&lt;/div&gt;&lt;div&gt;&lt;span style=&quot;color: #57a64a;&quot;&gt;  // start thread for publishing&lt;/span&gt;&lt;/div&gt;&lt;div&gt;&lt;span style=&quot;color: #b4b4b4;&quot;&gt;#&lt;/span&gt;&lt;span style=&quot;color: #9a9a9a;&quot;&gt;ifdef&lt;/span&gt;&lt;span style=&quot;color: #c8c8c8;&quot;&gt; &lt;/span&gt;&lt;span style=&quot;color: #beb7ff;&quot;&gt;PUBLISH_THREAD&lt;/span&gt;&lt;/div&gt;&lt;div&gt;  publisherWorker_ &lt;span style=&quot;color: #b4b4b4;&quot;&gt;=&lt;/span&gt; &lt;span style=&quot;color: #c8c8c8;&quot;&gt;std&lt;/span&gt;&lt;span style=&quot;color: #b4b4b4;&quot;&gt;::&lt;/span&gt;&lt;span style=&quot;color: #4ec9b0;&quot;&gt;thread&lt;/span&gt;&lt;span style=&quot;color: #b4b4b4;&quot;&gt;(&amp;amp;&lt;/span&gt;&lt;span style=&quot;color: #4ec9b0;&quot;&gt;MPC_ROS_Interface&lt;/span&gt;&lt;span style=&quot;color: #b4b4b4;&quot;&gt;::&lt;/span&gt;&lt;span style=&quot;color: #dcdcaa;&quot;&gt;publisherWorker&lt;/span&gt;&lt;span style=&quot;color: #b4b4b4;&quot;&gt;,&lt;/span&gt; &lt;span style=&quot;color: #569cd6;&quot;&gt;this&lt;/span&gt;&lt;span style=&quot;color: #b4b4b4;&quot;&gt;);&lt;/span&gt;&lt;/div&gt;&lt;div&gt;&lt;span style=&quot;color: #b4b4b4;&quot;&gt;#&lt;/span&gt;&lt;span style=&quot;color: #9a9a9a;&quot;&gt;endif&lt;/span&gt;&lt;/div&gt;&lt;div&gt;&lt;span style=&quot;color: #b4b4b4;&quot;&gt;}&lt;/span&gt;&lt;/div&gt;&lt;/div&gt;" style="text;html=1;align=center;verticalAlign=middle;resizable=0;points=[];autosize=1;strokeColor=none;fillColor=none;" vertex="1" parent="61">
                    <mxGeometry x="85" y="75" width="660" height="280" as="geometry"/>
                </mxCell>
                <mxCell id="65" value="publish: robotName_mpc_policy&lt;br&gt;" style="text;html=1;align=center;verticalAlign=middle;resizable=0;points=[];autosize=1;strokeColor=none;fillColor=none;" vertex="1" parent="61">
                    <mxGeometry x="370" y="475" width="190" height="30" as="geometry"/>
                </mxCell>
                <mxCell id="66" value="callback function to update: run mpc use MPC_BASE::run, then&lt;br&gt;it will call the&lt;span style=&quot;color: rgb(220, 220, 170); background-color: rgb(30, 30, 30); font-family: &amp;quot;Droid Sans Mono&amp;quot;, &amp;quot;monospace&amp;quot;, monospace; font-size: 14px;&quot;&gt;GaussNewtonDDP_MPC::&lt;/span&gt;&lt;span style=&quot;background-color: initial;&quot;&gt;calculateController, then it&amp;nbsp;&lt;br&gt;call&amp;nbsp;&amp;nbsp;&lt;/span&gt;&lt;span style=&quot;color: rgb(78, 201, 176); background-color: rgb(30, 30, 30); font-family: &amp;quot;Droid Sans Mono&amp;quot;, &amp;quot;monospace&amp;quot;, monospace; font-size: 14px;&quot;&gt;SolverBase&lt;/span&gt;&lt;span style=&quot;background-color: rgb(30, 30, 30); color: rgb(200, 200, 200); font-family: &amp;quot;Droid Sans Mono&amp;quot;, &amp;quot;monospace&amp;quot;, monospace; font-size: 14px;&quot;&gt;::run,then it call SolverBase::preRun,&amp;nbsp;&lt;br&gt;and GaussNewtonDDP::runImpl, finally call&amp;nbsp;&lt;/span&gt;&lt;span style=&quot;font-family: &amp;quot;Droid Sans Mono&amp;quot;, &amp;quot;monospace&amp;quot;, monospace; font-size: 14px; color: rgb(200, 200, 200);&quot;&gt;SolverBase&lt;/span&gt;&lt;span style=&quot;font-family: &amp;quot;Droid Sans Mono&amp;quot;, &amp;quot;monospace&amp;quot;, monospace; font-size: 14px; color: rgb(180, 180, 180);&quot;&gt;::&lt;/span&gt;&lt;span style=&quot;font-family: &amp;quot;Droid Sans Mono&amp;quot;, &amp;quot;monospace&amp;quot;, monospace; font-size: 14px; color: rgb(220, 220, 170);&quot;&gt;postRun&lt;/span&gt;&lt;span style=&quot;font-family: &amp;quot;Droid Sans Mono&amp;quot;, &amp;quot;monospace&amp;quot;, monospace; font-size: 14px; color: rgb(180, 180, 180);&quot;&gt;()&lt;/span&gt;" style="text;html=1;align=center;verticalAlign=middle;resizable=0;points=[];autosize=1;strokeColor=none;fillColor=none;" vertex="1" parent="61">
                    <mxGeometry x="40" y="550" width="550" height="80" as="geometry"/>
                </mxCell>
                <mxCell id="67" value="" style="edgeStyle=none;html=1;" edge="1" parent="1" source="64" target="66">
                    <mxGeometry relative="1" as="geometry"/>
                </mxCell>
                <mxCell id="64" value="subscribe: robotName_mpc_observation" style="text;html=1;align=center;verticalAlign=middle;resizable=0;points=[];autosize=1;strokeColor=none;fillColor=none;" vertex="1" parent="1">
                    <mxGeometry x="-490" y="3035" width="240" height="30" as="geometry"/>
                </mxCell>
            </root>
        </mxGraphModel>
    </diagram>
</mxfile>